<svg xmlns="http://www.w3.org/2000/svg" viewBox="0 0 1000 1000">
<style type="text/css">
	.st2{fill:none;stroke:#000000;stroke-width:1.3181;stroke-linecap:round;stroke-linejoin:round;stroke-miterlimit:11.3386;}
</style>
<g id="couleurs">
	<linearGradient id="path15352_00000054240192811708378200000009592217769596794806_" gradientUnits="userSpaceOnUse" x1="1.4235" y1="4.2141" x2="2.0261" y2="-86.4764" gradientTransform="matrix(2.8346 0 0 2.8346 0 4.553604e-02)">
		<stop  offset="0" style="stop-color:#B74DFF"/>
		<stop  offset="1" style="stop-color:#5530FF"/>
	</linearGradient>
	<path id="path15352" style="fill:url(#path15352_00000054240192811708378200000009592217769596794806_);" d="M-103.1-116.8c0,0,9.9-6.5,18.9,4.2c0,0,4.8,4.7,9.2,27.7l2.4,6.3l3.3,5l9.1,13.4l-1.4-16.3l0.7-8l1.6-8.7l4.5-6.4l2.7-8l-1.7-10.1l10.4-5.7l6.4-7.1l4.7-7.8l11.8,2.5h9.4l7.3-3.7l9.4-7.4l7.1,5.3l8.5,3.4H31l12.7-5.9l7.5,4.7l8.9,1.4l9.2-3.2l3.9-2.7L78-138l4.4,3.7l4.4,1.1l8-1.5l3.7,7.2l5.6,6.1c0,0-0.8,17.3-1,19.4c-0.2,2.1-1.3,4.2-1.3,4.2l0.6,12.1L101.5-72c0,0-3.7,20-8.9,31.9c-8.4,19-15.8,30-28.8,44.7c-5.5,3.7-11.3,6-15.9,8.5c-3.4,1.1-7.6,0.6-19.7,0.1L29.9,24c10.8,4.6,32.7,5,32.7,5l7-0.1c0,0,0.3-0.7,8.2,3.1c5.2,2.5,11.6,13.7,11.6,13.7l4-3.1L98,32.1l-0.1-12.4l2.6-8.2l3.7-9.2l-0.5-11.6l4.1-5.3l3.7-9.9l1.8-9.2l-3-10.5l-3.6-7.9l5-10l2.1-9.9l-3.3-16.1l4-8.2l0.7-8.5l-4.9-11.8l2.8-12.3l-1.1-12.4l-2.5-8.9L105-157l0.4-6.5l-2.5-8.9l-4.1-6.4l-6.2-4.6l-0.9-7.5l-3.7-6.6l-5.3-5l-11.2-3.6l0,0l-4.9-4.9l-6.2-3l-7.6-0.7l-8,1.6l-5.3-5l-6.2-3.4L22.5-222l-6.6,1.1L9-218.7l-9.4-5l-8.2-0.2l-6.6,1.1l-8.5,3l-7.6,5.1l-6.9-0.1l-8,1.6l-7.6,4.8l-5.9,7.1l-9.9,1.1l-6,1.8l-8,8.5l-3.7,8.2l-2.6,6.1l-5,3.1l-4.6,6.4l-2.1,8.2l1.6,6.9l1.3,6.6l-4.9,4.8l-1.8,8l0.2,5.5L-103.1-116.8z"/>
	<linearGradient id="path16459_00000008830219528864844220000009306952897782812607_" gradientUnits="userSpaceOnUse" x1="-24.7399" y1="15.4492" x2="-25.3563" y2="-46.8016" gradientTransform="matrix(2.8346 0 0 2.8346 0 4.553604e-02)">
		<stop  offset="0" style="stop-color:#B04BFF"/>
		<stop  offset="1" style="stop-color:#2B204C"/>
	</linearGradient>
	<path id="path16459" style="fill:url(#path16459_00000008830219528864844220000009306952897782812607_);" d="M-108-68.3L-108-68.3l-3.5,4.4l0.1,10.1l1.8,9.7l-4.4,7l-1.1,6.3l0.5,7.1l2.6,7l-1.9,5c0,0-0.6,4.6-0.4,6.1c0.4,3,3.9,11.3,3.9,11.3l-3.5,6.7l3,10.9l5.5,5.7l6.3,3.4l4.3-3.4c0,0,7.3-4.3,10.4-4.8c11-1.4,40.8,7.1,54.9-5c7.5-6.4,0,0,0,0s0.7-15.7-1.9-22.6c0,0-11-5.3-25.1-18.9c0,0-6.5-2.5-11.4-22.9c0,0-11.4,3.5-12,3.2c0,0,1.5,0.4-7.4-2.7C-94.4-50.5-108.1-69-108-68.3L-108-68.3z"/>
</g>
<g id="contours" class="st2">
	<path d="M-108-68.3c0,0-8.3,1.8-1.6,24.1c0,0-15.2,20.6,5.7,34.5"/>
	<path d="M-112-16.8c0.4-1.1-10.9,18.9,11.7,28.4"/>
	<path d="M-110.4,5.6c-7.7,8.3-0.2,24.1,11.3,26.8"/>
	<path d="M107.5-92.8c0,0,14.3,18.5-0.8,40.7"/>
	<path d="M104.3-55.5c0,0,18.8,22.8-0.6,46.2"/>
	<path d="M101.2-16.2c0,0,11.7,20.3-10.5,38.6"/>
	<path d="M98.2,15.4c0,0,2.3,29.2-10.8,31.2"/>
	<path d="M110.2-116.5c0,0,10,13.7,0.2,28.4"/>
	<path d="M104.9-156.9c0,0,15.5,17.8,3.3,44.2"/>
	<path d="M92.4-183.4c0,0,20.4,10.9,8.7,37.4"/>
	<path d="M71.4-206.2c0,0,26.4,0.6,19.8,32.2"/>
	<path d="M44.8-213.2c0,0,25.6-9.2,28.8,16.7"/>
	<path d="M9-218.7c0,0,30.9-14.1,38.7,12"/>
	<path d="M-31.3-214.6c0,0,25.6-22.2,45.9,1.1"/>
	<path d="M-62.6-196.5c0,0,15.1-28.7,38.4-14.7"/>
	<path d="M-90-170.7c0,0,1.5-32.2,30.3-30.5"/>
	<path d="M-96.5-138.8c0,0-13.9-26.2,6.6-36.6"/>
	<path d="M-103.1-116.8c0,0-9-18.6,3.5-28"/>
	<path d="M-75.1-84.9c0,0,18.2,39.1,14.3,18.7c-2.9-15.2,0.1-23.9,1.4-26.9"/>
	<path d="M-64.1-89.4c0,0,19.4-11.2,8.4-32.1"/>
	<path d="M-53.9-117.6c0,0,16.7-6.6,21.5-20.6"/>
	<path d="M-38.8-141.7c0,0,15.6,9,27.1,5.8c12.2-3.4,19.9-13.3,22.4-20.1"/>
	<path d="M5.6-146.8c0,0,9.2,9.7,20.9,9.2c12.3-0.5,21.9-9.6,26.6-16.2"/>
	<path d="M43.7-143.8c0,0,17,17.8,35.8-7"/>
	<path d="M73.2-143.7c0,0,11.7,21.7,27.2,3.6"/>
	<path d="M94.7-134.4c0,0,3.6,9.6,9.2,13.3"/>
</g>
</svg>